<svg xmlns="http://www.w3.org/2000/svg" width="83" height="80" fill="none"><g fill="#81B3D2" clip-path="url(#a)" filter="url(#b)"><path d="M33.7 65h16V41.2h-16V65Zm2.9-20.9h10.1v18H36.6v-18Z"/><path d="m76.8 39.3 2.1-2.1-9.9-9.9V0H55.1v13.6L41.5 0 4.2 37.2l2.1 2.1 7.8-7.8v37.6h-4V72H74v-2.9h-5.1V31.5l7.9 7.8ZM66 69.1H17V28.5L41.5 4.1 66 28.5v40.6Zm0-44.7-7.9-7.9V2.9H66v21.5Z"/><path d="M33.9 27.1c0 4.3 3.5 7.7 7.7 7.7 4.3 0 7.8-3.5 7.8-7.7 0-4.3-3.5-7.7-7.8-7.7a7.7 7.7 0 0 0-7.7 7.7Zm7.8-5a5 5 0 0 1 5 4.9c0 2.7-2.2 4.9-5 4.9a5 5 0 0 1-5-4.9c0-2.7 2.2-4.9 5-4.9ZM24.1 41.2h-3v3.9h3v-3.9ZM30 41.2h-3v3.9h3v-3.9ZM24.1 47.2h-3v3.9h3v-3.9ZM30 47.2h-3v3.9h3v-3.9ZM56 41.2h-3v3.9h3v-3.9ZM61.9 41.2h-3v3.9h3v-3.9ZM56 47.2h-3v3.9h3v-3.9ZM61.9 47.2h-3v3.9h3v-3.9Z"/></g><defs><clipPath id="a"><path fill="#fff" d="M4 0h75v72H4z"/></clipPath><filter id="b" width="83" height="80" x="0" y="0" color-interpolation-filters="sRGB" filterUnits="userSpaceOnUse"><feFlood flood-opacity="0" result="BackgroundImageFix"/><feColorMatrix in="SourceAlpha" result="hardAlpha" values="0 0 0 0 0 0 0 0 0 0 0 0 0 0 0 0 0 0 127 0"/><feOffset dy="4"/><feGaussianBlur stdDeviation="2"/><feComposite in2="hardAlpha" operator="out"/><feColorMatrix values="0 0 0 0 0 0 0 0 0 0 0 0 0 0 0 0 0 0 0.25 0"/><feBlend in2="BackgroundImageFix" result="effect1_dropShadow_31915_398"/><feBlend in="SourceGraphic" in2="effect1_dropShadow_31915_398" result="shape"/></filter></defs></svg>